<mxfile host="Electron" modified="2024-07-09T11:28:54.666Z" agent="Mozilla/5.0 (Macintosh; Intel Mac OS X 10_15_7) AppleWebKit/537.36 (KHTML, like Gecko) draw.io/24.6.4 Chrome/124.0.6367.207 Electron/30.0.6 Safari/537.36" etag="fHlD7_6Hm28ROv1rgqmr" version="24.6.4" type="device">
  <diagram id="V4lAulNeN_WDX5JnY8aY" name="pilot5">
    <mxGraphModel dx="1282" dy="777" grid="1" gridSize="10" guides="1" tooltips="1" connect="1" arrows="1" fold="1" page="1" pageScale="1" pageWidth="850" pageHeight="1100" math="0" shadow="0">
      <root>
        <mxCell id="0" />
        <mxCell id="1" parent="0" />
        <mxCell id="mLb4iFboR8zkR100jdQ6-1" value="" style="rounded=0;whiteSpace=wrap;html=1;rotation=90;fontFamily=Helvetica;" parent="1" vertex="1">
          <mxGeometry x="833.94" y="-20.00000000000003" width="115.29" height="661.44" as="geometry" />
        </mxCell>
        <mxCell id="mLb4iFboR8zkR100jdQ6-2" value="YANG Source" style="rounded=0;whiteSpace=wrap;html=1;fillColor=#d5e8d4;strokeColor=#82b366;fontFamily=Helvetica;" parent="1" vertex="1">
          <mxGeometry x="1074.25" y="273.7" width="129.5" height="30" as="geometry" />
        </mxCell>
        <mxCell id="mLb4iFboR8zkR100jdQ6-3" value="Class" style="rounded=0;whiteSpace=wrap;html=1;fontFamily=Helvetica;" parent="1" vertex="1">
          <mxGeometry x="577.75" y="283.71" width="139.5" height="30" as="geometry" />
        </mxCell>
        <mxCell id="mLb4iFboR8zkR100jdQ6-4" value="Data Property: datatype" style="rounded=0;whiteSpace=wrap;html=1;fontFamily=Helvetica;" parent="1" vertex="1">
          <mxGeometry x="577.75" y="313.71" width="139.5" height="30" as="geometry" />
        </mxCell>
        <mxCell id="mLb4iFboR8zkR100jdQ6-5" value="Object Property" style="endArrow=classic;html=1;rounded=0;labelPosition=right;verticalLabelPosition=bottom;align=center;verticalAlign=middle;fontFamily=Helvetica;" parent="1" edge="1">
          <mxGeometry width="50" height="50" relative="1" as="geometry">
            <mxPoint x="886.25" y="289.08000000000004" as="sourcePoint" />
            <mxPoint x="1046.25" y="289.36" as="targetPoint" />
            <mxPoint as="offset" />
          </mxGeometry>
        </mxCell>
        <mxCell id="mLb4iFboR8zkR100jdQ6-6" value="&lt;font style=&quot;font-size: 11px;&quot; color=&quot;#000000&quot;&gt;rdf:type&lt;/font&gt;" style="endArrow=open;html=1;fontColor=#000099;endFill=0;dashed=1;endSize=8;rounded=0;fontSize=8;labelPosition=center;verticalLabelPosition=bottom;align=center;verticalAlign=middle;fontFamily=Helvetica;" parent="1" edge="1">
          <mxGeometry width="50" height="50" relative="1" as="geometry">
            <mxPoint x="886.25" y="337.36000000000024" as="sourcePoint" />
            <mxPoint x="1046.25" y="337.36" as="targetPoint" />
            <mxPoint as="offset" />
          </mxGeometry>
        </mxCell>
        <mxCell id="mLb4iFboR8zkR100jdQ6-7" value="subClassOf" style="endArrow=block;html=1;fontColor=#000000;endFill=0;endSize=8;arcSize=0;rounded=0;fontFamily=Helvetica;" parent="1" edge="1">
          <mxGeometry width="50" height="50" relative="1" as="geometry">
            <mxPoint x="886.25" y="314.3600000000001" as="sourcePoint" />
            <mxPoint x="1046.25" y="314.36" as="targetPoint" />
          </mxGeometry>
        </mxCell>
        <mxCell id="mLb4iFboR8zkR100jdQ6-8" value="&lt;b style=&quot;font-size: 10px;&quot;&gt;&lt;font data-font-src=&quot;https://fonts.googleapis.com/css?family=Roboto+Condensed&quot;&gt;Legend&lt;/font&gt;&lt;/b&gt;" style="text;html=1;strokeColor=none;fillColor=none;align=center;verticalAlign=middle;whiteSpace=wrap;rounded=0;fontSize=10;fontFamily=Helvetica;" parent="1" vertex="1">
          <mxGeometry x="566.25" y="253.70000000000002" width="50" height="20" as="geometry" />
        </mxCell>
        <mxCell id="mLb4iFboR8zkR100jdQ6-9" value="&lt;u&gt;Individual&lt;/u&gt;" style="rounded=0;whiteSpace=wrap;html=1;fontFamily=Helvetica;" parent="1" vertex="1">
          <mxGeometry x="736.25" y="298.71" width="129.5" height="30" as="geometry" />
        </mxCell>
        <mxCell id="5fMTM_yUQj7tKh12GMyz-2" value="&lt;div&gt;&lt;b&gt;dc:title&lt;/b&gt;: YANG Source Ontology&lt;br&gt;&lt;/div&gt;&lt;div&gt;&lt;b&gt;dc:created&lt;/b&gt;: &quot;2024-07-09&quot;^^xsd:date&lt;/div&gt;&lt;div&gt;&lt;b&gt;dc:creator:&lt;/b&gt;&amp;nbsp;Ignacio Dominguez Martinez-Casanueva&lt;br&gt;&lt;/div&gt;&lt;div&gt;&lt;b&gt;owl:versionInfo&lt;/b&gt;: 1.0.0&lt;br&gt;&lt;/div&gt;" style="shape=document;whiteSpace=wrap;html=1;boundedLbl=1;labelBackgroundColor=#ffffff;strokeColor=#000000;fontSize=12;fontColor=#000000;size=0.13333333333333333;align=left;spacingLeft=10;" parent="1" vertex="1">
          <mxGeometry x="240" y="253.7" width="311" height="120" as="geometry" />
        </mxCell>
        <mxCell id="MMhxp2RpZaPXFtDsb9Ic-6" value="Reused Class" style="rounded=0;whiteSpace=wrap;html=1;fillColor=#f5f5f5;strokeColor=#666666;fontFamily=Helvetica;fontColor=#333333;" parent="1" vertex="1">
          <mxGeometry x="1074.25" y="313.71" width="129.5" height="30" as="geometry" />
        </mxCell>
        <mxCell id="7pKTagEgV_TqgitrA6XD-2" value="&lt;div style=&quot;border-color: var(--border-color);&quot;&gt;&lt;b style=&quot;border-color: var(--border-color);&quot;&gt;ys&lt;/b&gt;:&amp;nbsp;&lt;span style=&quot;white-space: pre;&quot;&gt;&lt;font style=&quot;&quot; face=&quot;Helvetica&quot;&gt;https://w3id.org/yang/source#&lt;/font&gt;&lt;/span&gt;&lt;/div&gt;&lt;div style=&quot;border-color: var(--border-color);&quot;&gt;&lt;b style=&quot;background-color: initial; border-color: var(--border-color);&quot;&gt;dcterms:&amp;nbsp;&lt;/b&gt;&lt;span style=&quot;background-color: initial;&quot;&gt;http://purl.org/dc/terms/&lt;/span&gt;&lt;br&gt;&lt;/div&gt;&lt;div style=&quot;border-color: var(--border-color);&quot;&gt;&lt;span style=&quot;background-color: initial;&quot;&gt;&lt;b&gt;rml:&lt;/b&gt;&amp;nbsp;&lt;/span&gt;&lt;span style=&quot;background-color: initial;&quot;&gt;http://w3id.org/rml/&lt;/span&gt;&lt;/div&gt;&lt;b style=&quot;border-color: var(--border-color);&quot;&gt;&lt;div style=&quot;&quot;&gt;&lt;/div&gt;&lt;/b&gt;" style="shape=note;whiteSpace=wrap;html=1;backgroundOutline=1;darkOpacity=0.05;size=13;align=left;spacingLeft=10;" parent="1" vertex="1">
          <mxGeometry x="240" y="379.98" width="310" height="66.27" as="geometry" />
        </mxCell>
        <mxCell id="-U4SR4fcINFbDXNsC2DA-14" value="&lt;div&gt;ys:endpointURL: xsd:anyURI&lt;/div&gt;&lt;div&gt;ys:port xsd:integer&lt;/div&gt;&lt;div&gt;&lt;span style=&quot;background-color: initial;&quot;&gt;ys:username: xsd:string&lt;/span&gt;&lt;/div&gt;&lt;div&gt;&lt;span style=&quot;background-color: initial;&quot;&gt;ys:password: xsd:string&lt;/span&gt;&lt;/div&gt;&lt;div&gt;&lt;span style=&quot;background-color: initial;&quot;&gt;ys:xpath: xsd:string&lt;/span&gt;&lt;/div&gt;" style="rounded=0;whiteSpace=wrap;html=1;snapToPoint=1;points=[[0.1,0],[0.2,0],[0.3,0],[0.4,0],[0.5,0],[0.6,0],[0.7,0],[0.8,0],[0.9,0],[0,0.1],[0,0.3],[0,0.5],[0,0.7],[0,0.9],[0.1,1],[0.2,1],[0.3,1],[0.4,1],[0.5,1],[0.6,1],[0.7,1],[0.8,1],[0.9,1],[1,0.1],[1,0.3],[1,0.5],[1,0.7],[1,0.9]];align=left;spacingLeft=10;" parent="1" vertex="1">
          <mxGeometry x="617.71" y="448.22" width="192.25" height="91.78" as="geometry" />
        </mxCell>
        <mxCell id="M0t86K6L0_S4k3AkDzjf-20" value="ys:netconfProfile" style="edgeStyle=orthogonalEdgeStyle;rounded=0;orthogonalLoop=1;jettySize=auto;html=1;exitX=1;exitY=0.5;exitDx=0;exitDy=0;" edge="1" parent="1" source="M0t86K6L0_S4k3AkDzjf-21" target="M0t86K6L0_S4k3AkDzjf-17">
          <mxGeometry relative="1" as="geometry">
            <Array as="points">
              <mxPoint x="879.92" y="656.22" />
              <mxPoint x="879.92" y="656.22" />
            </Array>
            <mxPoint as="offset" />
          </mxGeometry>
        </mxCell>
        <mxCell id="-U4SR4fcINFbDXNsC2DA-9" value="ys:YangSource" style="rounded=0;whiteSpace=wrap;html=1;snapToPoint=1;points=[[0.1,0],[0.2,0],[0.3,0],[0.4,0],[0.5,0],[0.6,0],[0.7,0],[0.8,0],[0.9,0],[0,0.1],[0,0.3],[0,0.5],[0,0.7],[0,0.9],[0.1,1],[0.2,1],[0.3,1],[0.4,1],[0.5,1],[0.6,1],[0.7,1],[0.8,1],[0.9,1],[1,0.1],[1,0.3],[1,0.5],[1,0.7],[1,0.9]];fillColor=#d5e8d4;strokeColor=#82b366;" parent="1" vertex="1">
          <mxGeometry x="617.71" y="418.22" width="192.25" height="30" as="geometry" />
        </mxCell>
        <mxCell id="M0t86K6L0_S4k3AkDzjf-7" value="rml:source" style="edgeStyle=orthogonalEdgeStyle;rounded=0;orthogonalLoop=1;jettySize=auto;html=1;" edge="1" parent="1" source="M0t86K6L0_S4k3AkDzjf-2" target="M0t86K6L0_S4k3AkDzjf-3">
          <mxGeometry relative="1" as="geometry" />
        </mxCell>
        <mxCell id="M0t86K6L0_S4k3AkDzjf-12" value="rml:referenceFormulation" style="edgeStyle=orthogonalEdgeStyle;rounded=0;orthogonalLoop=1;jettySize=auto;html=1;exitX=1;exitY=0.5;exitDx=0;exitDy=0;entryX=0;entryY=0.5;entryDx=0;entryDy=0;" edge="1" parent="1" source="M0t86K6L0_S4k3AkDzjf-2" target="M0t86K6L0_S4k3AkDzjf-10">
          <mxGeometry relative="1" as="geometry" />
        </mxCell>
        <mxCell id="M0t86K6L0_S4k3AkDzjf-2" value="rml:LogicalSource" style="rounded=0;whiteSpace=wrap;html=1;snapToPoint=1;points=[[0.1,0],[0.2,0],[0.3,0],[0.4,0],[0.5,0],[0.6,0],[0.7,0],[0.8,0],[0.9,0],[0,0.1],[0,0.3],[0,0.5],[0,0.7],[0,0.9],[0.1,1],[0.2,1],[0.3,1],[0.4,1],[0.5,1],[0.6,1],[0.7,1],[0.8,1],[0.9,1],[1,0.1],[1,0.3],[1,0.5],[1,0.7],[1,0.9]];fillColor=#f5f5f5;strokeColor=#666666;fontColor=#333333;" vertex="1" parent="1">
          <mxGeometry x="830" y="558.22" width="192.25" height="30" as="geometry" />
        </mxCell>
        <mxCell id="M0t86K6L0_S4k3AkDzjf-3" value="rml:Source" style="rounded=0;whiteSpace=wrap;html=1;snapToPoint=1;points=[[0.1,0],[0.2,0],[0.3,0],[0.4,0],[0.5,0],[0.6,0],[0.7,0],[0.8,0],[0.9,0],[0,0.1],[0,0.3],[0,0.5],[0,0.7],[0,0.9],[0.1,1],[0.2,1],[0.3,1],[0.4,1],[0.5,1],[0.6,1],[0.7,1],[0.8,1],[0.9,1],[1,0.1],[1,0.3],[1,0.5],[1,0.7],[1,0.9]];fillColor=#f5f5f5;strokeColor=#666666;fontColor=#333333;" vertex="1" parent="1">
          <mxGeometry x="830" y="480" width="192.25" height="30" as="geometry" />
        </mxCell>
        <mxCell id="M0t86K6L0_S4k3AkDzjf-13" value="rml:namespace" style="edgeStyle=orthogonalEdgeStyle;rounded=0;orthogonalLoop=1;jettySize=auto;html=1;exitX=0.5;exitY=1;exitDx=0;exitDy=0;entryX=0.5;entryY=0;entryDx=0;entryDy=0;" edge="1" parent="1" source="M0t86K6L0_S4k3AkDzjf-8" target="M0t86K6L0_S4k3AkDzjf-9">
          <mxGeometry relative="1" as="geometry" />
        </mxCell>
        <mxCell id="M0t86K6L0_S4k3AkDzjf-8" value="rml:XPathReferenceFormulation" style="rounded=0;whiteSpace=wrap;html=1;snapToPoint=1;points=[[0.1,0],[0.2,0],[0.3,0],[0.4,0],[0.5,0],[0.6,0],[0.7,0],[0.8,0],[0.9,0],[0,0.1],[0,0.3],[0,0.5],[0,0.7],[0,0.9],[0.1,1],[0.2,1],[0.3,1],[0.4,1],[0.5,1],[0.6,1],[0.7,1],[0.8,1],[0.9,1],[1,0.1],[1,0.3],[1,0.5],[1,0.7],[1,0.9]];fillColor=#f5f5f5;strokeColor=#666666;fontColor=#333333;" vertex="1" parent="1">
          <mxGeometry x="1132.5" y="558.22" width="202.25" height="30" as="geometry" />
        </mxCell>
        <mxCell id="M0t86K6L0_S4k3AkDzjf-9" value="rml:Namespace" style="rounded=0;whiteSpace=wrap;html=1;snapToPoint=1;points=[[0.1,0],[0.2,0],[0.3,0],[0.4,0],[0.5,0],[0.6,0],[0.7,0],[0.8,0],[0.9,0],[0,0.1],[0,0.3],[0,0.5],[0,0.7],[0,0.9],[0.1,1],[0.2,1],[0.3,1],[0.4,1],[0.5,1],[0.6,1],[0.7,1],[0.8,1],[0.9,1],[1,0.1],[1,0.3],[1,0.5],[1,0.7],[1,0.9]];fillColor=#f5f5f5;strokeColor=#666666;fontColor=#333333;" vertex="1" parent="1">
          <mxGeometry x="1173.6200000000001" y="641.4400000000002" width="120" height="30" as="geometry" />
        </mxCell>
        <mxCell id="M0t86K6L0_S4k3AkDzjf-10" value="rml:ReferenceFormulation" style="rounded=0;whiteSpace=wrap;html=1;snapToPoint=1;points=[[0.1,0],[0.2,0],[0.3,0],[0.4,0],[0.5,0],[0.6,0],[0.7,0],[0.8,0],[0.9,0],[0,0.1],[0,0.3],[0,0.5],[0,0.7],[0,0.9],[0.1,1],[0.2,1],[0.3,1],[0.4,1],[0.5,1],[0.6,1],[0.7,1],[0.8,1],[0.9,1],[1,0.1],[1,0.3],[1,0.5],[1,0.7],[1,0.9]];fillColor=#f5f5f5;strokeColor=#666666;fontColor=#333333;" vertex="1" parent="1">
          <mxGeometry x="1132.5" y="480" width="202.25" height="30" as="geometry" />
        </mxCell>
        <mxCell id="M0t86K6L0_S4k3AkDzjf-11" value="rml:XPath" style="rounded=0;whiteSpace=wrap;html=1;snapToPoint=1;points=[[0.1,0],[0.2,0],[0.3,0],[0.4,0],[0.5,0],[0.6,0],[0.7,0],[0.8,0],[0.9,0],[0,0.1],[0,0.3],[0,0.5],[0,0.7],[0,0.9],[0.1,1],[0.2,1],[0.3,1],[0.4,1],[0.5,1],[0.6,1],[0.7,1],[0.8,1],[0.9,1],[1,0.1],[1,0.3],[1,0.5],[1,0.7],[1,0.9]];fillColor=#f5f5f5;strokeColor=#666666;fontColor=#333333;fontStyle=4" vertex="1" parent="1">
          <mxGeometry x="1188.62" y="410" width="90" height="30" as="geometry" />
        </mxCell>
        <mxCell id="M0t86K6L0_S4k3AkDzjf-14" value="" style="endArrow=block;html=1;fontColor=#000099;exitX=0.5;exitY=0;exitDx=0;exitDy=0;endFill=0;endSize=8;arcSize=0;rounded=0;edgeStyle=orthogonalEdgeStyle;entryX=0.5;entryY=1;entryDx=0;entryDy=0;" edge="1" parent="1" source="M0t86K6L0_S4k3AkDzjf-8" target="M0t86K6L0_S4k3AkDzjf-10">
          <mxGeometry width="50" height="50" relative="1" as="geometry">
            <mxPoint x="780" y="443" as="sourcePoint" />
            <mxPoint x="1234" y="530" as="targetPoint" />
          </mxGeometry>
        </mxCell>
        <mxCell id="M0t86K6L0_S4k3AkDzjf-15" value="&lt;font style=&quot;font-size: 11px;&quot; color=&quot;#000000&quot;&gt;rdf:type&lt;/font&gt;" style="endArrow=open;html=1;fontColor=#000099;endFill=0;dashed=1;endSize=8;rounded=0;fontSize=8;labelPosition=center;verticalLabelPosition=bottom;align=center;verticalAlign=middle;fontFamily=Helvetica;entryX=0.5;entryY=0;entryDx=0;entryDy=0;edgeStyle=orthogonalEdgeStyle;" edge="1" parent="1" source="M0t86K6L0_S4k3AkDzjf-11" target="M0t86K6L0_S4k3AkDzjf-10">
          <mxGeometry x="-0.1565" width="50" height="50" relative="1" as="geometry">
            <mxPoint x="1056.25" y="367.36" as="sourcePoint" />
            <mxPoint x="896.25" y="367.36000000000024" as="targetPoint" />
            <mxPoint as="offset" />
            <Array as="points" />
          </mxGeometry>
        </mxCell>
        <mxCell id="M0t86K6L0_S4k3AkDzjf-17" value="ys:NetconfProfile" style="rounded=0;whiteSpace=wrap;html=1;snapToPoint=1;points=[[0.1,0],[0.2,0],[0.3,0],[0.4,0],[0.5,0],[0.6,0],[0.7,0],[0.8,0],[0.9,0],[0,0.1],[0,0.3],[0,0.5],[0,0.7],[0,0.9],[0.1,1],[0.2,1],[0.3,1],[0.4,1],[0.5,1],[0.6,1],[0.7,1],[0.8,1],[0.9,1],[1,0.1],[1,0.3],[1,0.5],[1,0.7],[1,0.9]];fillColor=#d5e8d4;strokeColor=#82b366;" vertex="1" parent="1">
          <mxGeometry x="941.12" y="641.44" width="122.25" height="30" as="geometry" />
        </mxCell>
        <mxCell id="M0t86K6L0_S4k3AkDzjf-19" value="ys:vendor" style="edgeStyle=orthogonalEdgeStyle;rounded=0;orthogonalLoop=1;jettySize=auto;html=1;" edge="1" parent="1" source="M0t86K6L0_S4k3AkDzjf-17" target="M0t86K6L0_S4k3AkDzjf-18">
          <mxGeometry x="-0.4354" y="-2" relative="1" as="geometry">
            <mxPoint as="offset" />
          </mxGeometry>
        </mxCell>
        <mxCell id="M0t86K6L0_S4k3AkDzjf-18" value="ys:Vendor" style="rounded=0;whiteSpace=wrap;html=1;snapToPoint=1;points=[[0.1,0],[0.2,0],[0.3,0],[0.4,0],[0.5,0],[0.6,0],[0.7,0],[0.8,0],[0.9,0],[0,0.1],[0,0.3],[0,0.5],[0,0.7],[0,0.9],[0.1,1],[0.2,1],[0.3,1],[0.4,1],[0.5,1],[0.6,1],[0.7,1],[0.8,1],[0.9,1],[1,0.1],[1,0.3],[1,0.5],[1,0.7],[1,0.9]];fillColor=#d5e8d4;strokeColor=#82b366;" vertex="1" parent="1">
          <mxGeometry x="946.12" y="703.22" width="112.25" height="30" as="geometry" />
        </mxCell>
        <mxCell id="M0t86K6L0_S4k3AkDzjf-22" value="" style="endArrow=block;html=1;fontColor=#000099;endFill=0;entryX=0;entryY=0.5;entryDx=0;entryDy=0;endSize=8;arcSize=0;rounded=0;edgeStyle=orthogonalEdgeStyle;exitX=0;exitY=0.5;exitDx=0;exitDy=0;" edge="1" parent="1" source="M0t86K6L0_S4k3AkDzjf-21" target="-U4SR4fcINFbDXNsC2DA-9">
          <mxGeometry width="50" height="50" relative="1" as="geometry">
            <mxPoint x="819.9599999999999" y="443" as="sourcePoint" />
            <mxPoint x="975.9599999999999" y="490" as="targetPoint" />
            <Array as="points">
              <mxPoint x="590" y="656" />
              <mxPoint x="590" y="433" />
            </Array>
          </mxGeometry>
        </mxCell>
        <mxCell id="M0t86K6L0_S4k3AkDzjf-25" value="ys:RestconfSource" style="rounded=0;whiteSpace=wrap;html=1;snapToPoint=1;points=[[0.1,0],[0.2,0],[0.3,0],[0.4,0],[0.5,0],[0.6,0],[0.7,0],[0.8,0],[0.9,0],[0,0.1],[0,0.3],[0,0.5],[0,0.7],[0,0.9],[0.1,1],[0.2,1],[0.3,1],[0.4,1],[0.5,1],[0.6,1],[0.7,1],[0.8,1],[0.9,1],[1,0.1],[1,0.3],[1,0.5],[1,0.7],[1,0.9]];fillColor=#d5e8d4;strokeColor=#82b366;" vertex="1" parent="1">
          <mxGeometry x="683.7099999999999" y="600" width="122.25" height="30" as="geometry" />
        </mxCell>
        <mxCell id="M0t86K6L0_S4k3AkDzjf-26" value="ys:GnmiSource" style="rounded=0;whiteSpace=wrap;html=1;snapToPoint=1;points=[[0.1,0],[0.2,0],[0.3,0],[0.4,0],[0.5,0],[0.6,0],[0.7,0],[0.8,0],[0.9,0],[0,0.1],[0,0.3],[0,0.5],[0,0.7],[0,0.9],[0.1,1],[0.2,1],[0.3,1],[0.4,1],[0.5,1],[0.6,1],[0.7,1],[0.8,1],[0.9,1],[1,0.1],[1,0.3],[1,0.5],[1,0.7],[1,0.9]];fillColor=#d5e8d4;strokeColor=#82b366;" vertex="1" parent="1">
          <mxGeometry x="683.7099999999999" y="558.22" width="122.25" height="30" as="geometry" />
        </mxCell>
        <mxCell id="M0t86K6L0_S4k3AkDzjf-27" value="" style="endArrow=block;html=1;fontColor=#000099;endFill=0;entryX=0;entryY=0.5;entryDx=0;entryDy=0;endSize=8;arcSize=0;rounded=0;edgeStyle=orthogonalEdgeStyle;exitX=0;exitY=0.5;exitDx=0;exitDy=0;" edge="1" parent="1" source="M0t86K6L0_S4k3AkDzjf-25" target="-U4SR4fcINFbDXNsC2DA-9">
          <mxGeometry width="50" height="50" relative="1" as="geometry">
            <mxPoint x="697.9599999999999" y="635" as="sourcePoint" />
            <mxPoint x="627.9599999999999" y="443" as="targetPoint" />
            <Array as="points">
              <mxPoint x="590" y="615" />
              <mxPoint x="590" y="433" />
            </Array>
          </mxGeometry>
        </mxCell>
        <mxCell id="M0t86K6L0_S4k3AkDzjf-29" value="" style="endArrow=block;html=1;fontColor=#000099;endFill=0;endSize=8;arcSize=0;rounded=0;edgeStyle=orthogonalEdgeStyle;exitX=0;exitY=0.5;exitDx=0;exitDy=0;entryX=0;entryY=0.5;entryDx=0;entryDy=0;" edge="1" parent="1" source="M0t86K6L0_S4k3AkDzjf-26" target="-U4SR4fcINFbDXNsC2DA-9">
          <mxGeometry width="50" height="50" relative="1" as="geometry">
            <mxPoint x="693.9599999999999" y="613" as="sourcePoint" />
            <mxPoint x="609.96" y="460" as="targetPoint" />
            <Array as="points">
              <mxPoint x="590" y="573" />
              <mxPoint x="590" y="433" />
              <mxPoint x="618" y="433" />
            </Array>
          </mxGeometry>
        </mxCell>
        <mxCell id="M0t86K6L0_S4k3AkDzjf-30" value="&lt;span class=&quot;st&quot;&gt;⨆&lt;/span&gt;" style="ellipse;whiteSpace=wrap;html=1;aspect=fixed;fontSize=17;" vertex="1" parent="1">
          <mxGeometry x="911.12" y="418.22" width="30" height="30" as="geometry" />
        </mxCell>
        <mxCell id="M0t86K6L0_S4k3AkDzjf-33" value="" style="endArrow=open;html=1;fontColor=#000099;exitX=0.5;exitY=1;exitDx=0;exitDy=0;endFill=0;dashed=1;entryX=0.5;entryY=0;entryDx=0;entryDy=0;endSize=8;arcSize=0;rounded=0;" edge="1" source="M0t86K6L0_S4k3AkDzjf-30" target="M0t86K6L0_S4k3AkDzjf-3" parent="1">
          <mxGeometry width="50" height="50" relative="1" as="geometry">
            <mxPoint x="682" y="440" as="sourcePoint" />
            <mxPoint x="897" y="405" as="targetPoint" />
          </mxGeometry>
        </mxCell>
        <mxCell id="M0t86K6L0_S4k3AkDzjf-34" value="" style="endArrow=open;html=1;fontColor=#000099;exitX=0;exitY=0.5;exitDx=0;exitDy=0;endFill=0;dashed=1;entryX=1;entryY=0.5;entryDx=0;entryDy=0;endSize=8;arcSize=0;rounded=0;" edge="1" source="M0t86K6L0_S4k3AkDzjf-30" target="-U4SR4fcINFbDXNsC2DA-9" parent="1">
          <mxGeometry width="50" height="50" relative="1" as="geometry">
            <mxPoint x="865.6066017177982" y="429.3933982822018" as="sourcePoint" />
            <mxPoint x="907" y="415" as="targetPoint" />
          </mxGeometry>
        </mxCell>
        <mxCell id="M0t86K6L0_S4k3AkDzjf-38" value="&lt;div&gt;ys:subtree: xsd:string&lt;/div&gt;" style="rounded=0;whiteSpace=wrap;html=1;snapToPoint=1;points=[[0.1,0],[0.2,0],[0.3,0],[0.4,0],[0.5,0],[0.6,0],[0.7,0],[0.8,0],[0.9,0],[0,0.1],[0,0.3],[0,0.5],[0,0.7],[0,0.9],[0.1,1],[0.2,1],[0.3,1],[0.4,1],[0.5,1],[0.6,1],[0.7,1],[0.8,1],[0.9,1],[1,0.1],[1,0.3],[1,0.5],[1,0.7],[1,0.9]];align=left;spacingLeft=10;" vertex="1" parent="1">
          <mxGeometry x="683.71" y="671.44" width="136.21" height="31.78" as="geometry" />
        </mxCell>
        <mxCell id="M0t86K6L0_S4k3AkDzjf-21" value="ys:NetconfSource" style="rounded=0;whiteSpace=wrap;html=1;snapToPoint=1;points=[[0.1,0],[0.2,0],[0.3,0],[0.4,0],[0.5,0],[0.6,0],[0.7,0],[0.8,0],[0.9,0],[0,0.1],[0,0.3],[0,0.5],[0,0.7],[0,0.9],[0.1,1],[0.2,1],[0.3,1],[0.4,1],[0.5,1],[0.6,1],[0.7,1],[0.8,1],[0.9,1],[1,0.1],[1,0.3],[1,0.5],[1,0.7],[1,0.9]];fillColor=#d5e8d4;strokeColor=#82b366;" vertex="1" parent="1">
          <mxGeometry x="683.7099999999999" y="641.44" width="136.21" height="30" as="geometry" />
        </mxCell>
      </root>
    </mxGraphModel>
  </diagram>
</mxfile>
